<svg width="370.49755859375px" height="131.60498046875px" xmlns="http://www.w3.org/2000/svg" viewBox="64.751220703125 9.197509765625 370.49755859375 131.60498046875" style="background: rgba(0, 0, 0, 0);" preserveAspectRatio="xMidYMid"><defs><linearGradient id="editing-sticker-gradient" x1="0.5" y1="0.2" x2="0.5" y2="0.8"><stop offset="0" stop-color="#fd9"></stop><stop offset="1" stop-color="#9df"></stop></linearGradient><filter id="editing-sticker" x="-100%" y="-100%" width="300%" height="300%"><feMorphology operator="erode" radius="1" in="SourceAlpha" result="alpha-erode"></feMorphology><feConvolveMatrix order="3,3" divisor="1" kernelMatrix="0 1 0 1 1 1 0 1 0" in="alpha-erode" result="alpha-round"></feConvolveMatrix><feMorphology operator="dilate" radius="3.5" in="alpha-round" result="dilate-shadow"></feMorphology><feGaussianBlur in="dilate-shadow" stdDeviation="1.5" result="shadow"></feGaussianBlur><feFlood flood-color="#fff" result="flood-sticker"></feFlood><feComposite operator="in" in="flood-sticker" in2="alpha-round" result="comp-sticker"></feComposite><feMorphology operator="dilate" radius="3" in="comp-sticker" result="morph-sticker"></feMorphology><feConvolveMatrix order="3,3" divisor="1" kernelMatrix="0 1 0 1 1 1 0 1 0" in="morph-sticker" result="sticker"></feConvolveMatrix><feMerge><feMergeNode in="shadow"></feMergeNode><feMergeNode in="sticker"></feMergeNode><feMergeNode in="SourceGraphic"></feMergeNode></feMerge></filter></defs><g filter="url(#editing-sticker)"><g transform="translate(120.30999898910522, 98.03333473205566)"><path d="M49.50-44.81L49.50-3.47L49.50-3.47Q49.50-2.59 49.17-1.84L49.17-1.84L49.17-1.84Q48.84-1.09 48.30-0.55L48.30-0.55L48.30-0.55Q47.75 0 47 0.31L47 0.31L47 0.31Q46.25 0.63 45.41 0.63L45.41 0.63L45.41 0.63Q44.66 0.63 43.89 0.34L43.89 0.34L43.89 0.34Q43.13 0.06 42.53-0.56L42.53-0.56L12.84-31.56L12.84 0L4.72 0L4.72-41.34L4.72-41.34Q4.72-42.59 5.42-43.61L5.42-43.61L5.42-43.61Q6.13-44.63 7.22-45.13L7.22-45.13L7.22-45.13Q8.38-45.59 9.59-45.36L9.59-45.36L9.59-45.36Q10.81-45.13 11.69-44.22L11.69-44.22L41.38-13.25L41.38-44.81L49.50-44.81ZM94.72-44.81L103.78-44.81L82.56-1.59L82.56-1.59Q82.06-0.59 81.08 0.02L81.08 0.02L81.08 0.02Q80.09 0.63 78.91 0.63L78.91 0.63L78.91 0.63Q77.75 0.63 76.77 0.02L76.77 0.02L76.77 0.02Q75.78-0.59 75.25-1.59L75.25-1.59L54.06-44.81L63.16-44.81L78.91-12.53L94.72-44.81ZM135.44-26.06L135.44-18.75L106.13-18.75L106.13-26.06L135.44-26.06ZM151.97-44.81L151.97 0L143.84 0L143.84-44.81L151.97-44.81ZM206.19-26.06L206.19-18.75L206.19-18.75Q206.19-14.66 204.77-11.22L204.77-11.22L204.77-11.22Q203.34-7.78 200.84-5.30L200.84-5.30L200.84-5.30Q198.34-2.81 194.91-1.41L194.91-1.41L194.91-1.41Q191.47 0 187.44 0L187.44 0L165.50 0L165.50 0Q164.63 0 163.88-0.31L163.88-0.31L163.88-0.31Q163.13-0.63 162.58-1.17L162.58-1.17L162.58-1.17Q162.03-1.72 161.72-2.47L161.72-2.47L161.72-2.47Q161.41-3.22 161.41-4.09L161.41-4.09L161.41-40.72L161.41-40.72Q161.41-41.56 161.72-42.31L161.72-42.31L161.72-42.31Q162.03-43.06 162.58-43.63L162.58-43.63L162.58-43.63Q163.13-44.19 163.88-44.50L163.88-44.50L163.88-44.50Q164.63-44.81 165.50-44.81L165.50-44.81L187.44-44.81L187.44-44.81Q191.47-44.81 194.91-43.41L194.91-43.41L194.91-43.41Q198.34-42 200.84-39.52L200.84-39.52L200.84-39.52Q203.34-37.03 204.77-33.58L204.77-33.58L204.77-33.58Q206.19-30.13 206.19-26.06L206.19-26.06ZM198.06-18.75L198.06-26.06L198.06-26.06Q198.06-28.44 197.30-30.41L197.30-30.41L197.30-30.41Q196.53-32.38 195.13-33.77L195.13-33.77L195.13-33.77Q193.72-35.16 191.77-35.92L191.77-35.92L191.77-35.92Q189.81-36.69 187.44-36.69L187.44-36.69L169.53-36.69L169.53-8.13L187.44-8.13L187.44-8.13Q189.81-8.13 191.77-8.89L191.77-8.89L191.77-8.89Q193.72-9.66 195.13-11.05L195.13-11.05L195.13-11.05Q196.53-12.44 197.30-14.39L197.30-14.39L197.30-14.39Q198.06-16.34 198.06-18.75L198.06-18.75ZM251-26.50L251-18.31L225.34-18.31L225.34-26.50L251-26.50ZM254.66-8.13L254.66 0L225.34 0L225.34 0Q223.66 0 221.66-0.59L221.66-0.59L221.66-0.59Q219.66-1.19 217.95-2.55L217.95-2.55L217.95-2.55Q216.25-3.91 215.11-6.08L215.11-6.08L215.11-6.08Q213.97-8.25 213.97-11.41L213.97-11.41L213.97-40.72L213.97-40.72Q213.97-41.56 214.28-42.31L214.28-42.31L214.28-42.31Q214.59-43.06 215.14-43.63L215.14-43.63L215.14-43.63Q215.69-44.19 216.44-44.50L216.44-44.50L216.44-44.50Q217.19-44.81 218.06-44.81L218.06-44.81L254.66-44.81L254.66-36.69L222.09-36.69L222.09-11.41L222.09-11.41Q222.09-9.81 222.94-8.97L222.94-8.97L222.94-8.97Q223.78-8.13 225.41-8.13L225.41-8.13L254.66-8.13Z" fill="url(#editing-sticker-gradient)" stroke="#000" stroke-width="2.5"></path></g></g><style>text {
  font-size: 64px;
  font-family: Arial Black;
  dominant-baseline: central;
  text-anchor: middle;
}</style></svg>